<mxfile host="app.diagrams.net" modified="2023-07-04T11:43:29.469Z" agent="Mozilla/5.0 (Windows NT 10.0; Win64; x64) AppleWebKit/537.36 (KHTML, like Gecko) Chrome/114.0.0.0 Safari/537.36" etag="l7UXV-sicB1ZYWAmZELa" version="21.5.2" type="github">
  <diagram id="C5RBs43oDa-KdzZeNtuy" name="Page-1">
    <mxGraphModel dx="1169" dy="1347" grid="1" gridSize="10" guides="1" tooltips="1" connect="1" arrows="1" fold="1" page="1" pageScale="1" pageWidth="827" pageHeight="1169" math="0" shadow="0">
      <root>
        <mxCell id="WIyWlLk6GJQsqaUBKTNV-0" />
        <mxCell id="WIyWlLk6GJQsqaUBKTNV-1" parent="WIyWlLk6GJQsqaUBKTNV-0" />
        <mxCell id="r5a2P7JqoO0qEq4FDR-g-6" value="Is year Evenly divisible by 4" style="rounded=1;whiteSpace=wrap;html=1;fontSize=12;glass=0;strokeWidth=1;shadow=0;" vertex="1" parent="WIyWlLk6GJQsqaUBKTNV-1">
          <mxGeometry x="440" y="60" width="120" height="40" as="geometry" />
        </mxCell>
        <mxCell id="r5a2P7JqoO0qEq4FDR-g-17" style="edgeStyle=orthogonalEdgeStyle;rounded=0;orthogonalLoop=1;jettySize=auto;html=1;exitX=0.5;exitY=0;exitDx=0;exitDy=0;entryX=0.5;entryY=1;entryDx=0;entryDy=0;" edge="1" parent="WIyWlLk6GJQsqaUBKTNV-1" source="r5a2P7JqoO0qEq4FDR-g-28" target="r5a2P7JqoO0qEq4FDR-g-6">
          <mxGeometry relative="1" as="geometry">
            <mxPoint x="610" y="209.9999999999999" as="sourcePoint" />
          </mxGeometry>
        </mxCell>
        <mxCell id="r5a2P7JqoO0qEq4FDR-g-20" value="Yes" style="edgeLabel;html=1;align=center;verticalAlign=middle;resizable=0;points=[];" vertex="1" connectable="0" parent="r5a2P7JqoO0qEq4FDR-g-17">
          <mxGeometry x="-0.2846" relative="1" as="geometry">
            <mxPoint as="offset" />
          </mxGeometry>
        </mxCell>
        <mxCell id="r5a2P7JqoO0qEq4FDR-g-16" style="edgeStyle=orthogonalEdgeStyle;rounded=0;orthogonalLoop=1;jettySize=auto;html=1;exitX=0.5;exitY=0;exitDx=0;exitDy=0;entryX=0.5;entryY=1;entryDx=0;entryDy=0;" edge="1" parent="WIyWlLk6GJQsqaUBKTNV-1" source="r5a2P7JqoO0qEq4FDR-g-21" target="r5a2P7JqoO0qEq4FDR-g-6">
          <mxGeometry relative="1" as="geometry">
            <mxPoint x="260" y="210" as="sourcePoint" />
          </mxGeometry>
        </mxCell>
        <mxCell id="r5a2P7JqoO0qEq4FDR-g-19" value="No" style="edgeLabel;html=1;align=center;verticalAlign=middle;resizable=0;points=[];" vertex="1" connectable="0" parent="r5a2P7JqoO0qEq4FDR-g-16">
          <mxGeometry x="-0.3921" y="-2" relative="1" as="geometry">
            <mxPoint as="offset" />
          </mxGeometry>
        </mxCell>
        <mxCell id="r5a2P7JqoO0qEq4FDR-g-21" value="Not a Leap Year" style="rounded=1;whiteSpace=wrap;html=1;fontSize=12;glass=0;strokeWidth=1;shadow=0;strokeColor=#CC0000;" vertex="1" parent="WIyWlLk6GJQsqaUBKTNV-1">
          <mxGeometry x="200" y="250" width="120" height="40" as="geometry" />
        </mxCell>
        <mxCell id="r5a2P7JqoO0qEq4FDR-g-28" value="Evenly Divisible by 100?" style="rounded=1;whiteSpace=wrap;html=1;fontSize=12;glass=0;strokeWidth=1;shadow=0;" vertex="1" parent="WIyWlLk6GJQsqaUBKTNV-1">
          <mxGeometry x="700" y="250" width="120" height="40" as="geometry" />
        </mxCell>
        <mxCell id="r5a2P7JqoO0qEq4FDR-g-29" style="edgeStyle=orthogonalEdgeStyle;rounded=0;orthogonalLoop=1;jettySize=auto;html=1;exitX=0.5;exitY=0;exitDx=0;exitDy=0;entryX=0.5;entryY=1;entryDx=0;entryDy=0;" edge="1" parent="WIyWlLk6GJQsqaUBKTNV-1" source="r5a2P7JqoO0qEq4FDR-g-45" target="r5a2P7JqoO0qEq4FDR-g-28">
          <mxGeometry relative="1" as="geometry">
            <mxPoint x="950.0000000000002" y="410" as="sourcePoint" />
          </mxGeometry>
        </mxCell>
        <mxCell id="r5a2P7JqoO0qEq4FDR-g-30" value="Yes" style="edgeLabel;html=1;align=center;verticalAlign=middle;resizable=0;points=[];" vertex="1" connectable="0" parent="r5a2P7JqoO0qEq4FDR-g-29">
          <mxGeometry x="-0.2846" relative="1" as="geometry">
            <mxPoint as="offset" />
          </mxGeometry>
        </mxCell>
        <mxCell id="r5a2P7JqoO0qEq4FDR-g-32" style="edgeStyle=orthogonalEdgeStyle;rounded=0;orthogonalLoop=1;jettySize=auto;html=1;exitX=0.5;exitY=0;exitDx=0;exitDy=0;entryX=0.5;entryY=1;entryDx=0;entryDy=0;" edge="1" parent="WIyWlLk6GJQsqaUBKTNV-1" source="r5a2P7JqoO0qEq4FDR-g-34" target="r5a2P7JqoO0qEq4FDR-g-28">
          <mxGeometry relative="1" as="geometry" />
        </mxCell>
        <mxCell id="r5a2P7JqoO0qEq4FDR-g-33" value="No" style="edgeLabel;html=1;align=center;verticalAlign=middle;resizable=0;points=[];" vertex="1" connectable="0" parent="r5a2P7JqoO0qEq4FDR-g-32">
          <mxGeometry x="-0.3921" y="-2" relative="1" as="geometry">
            <mxPoint as="offset" />
          </mxGeometry>
        </mxCell>
        <mxCell id="r5a2P7JqoO0qEq4FDR-g-34" value="Is a Leap Year" style="rounded=1;whiteSpace=wrap;html=1;fontSize=12;glass=0;strokeWidth=1;shadow=0;fillColor=#003300;" vertex="1" parent="WIyWlLk6GJQsqaUBKTNV-1">
          <mxGeometry x="540" y="410" width="120" height="40" as="geometry" />
        </mxCell>
        <mxCell id="r5a2P7JqoO0qEq4FDR-g-45" value="Is evenly divisible by 400?" style="rounded=1;whiteSpace=wrap;html=1;fontSize=12;glass=0;strokeWidth=1;shadow=0;" vertex="1" parent="WIyWlLk6GJQsqaUBKTNV-1">
          <mxGeometry x="890" y="410" width="120" height="40" as="geometry" />
        </mxCell>
        <mxCell id="r5a2P7JqoO0qEq4FDR-g-49" style="edgeStyle=orthogonalEdgeStyle;rounded=0;orthogonalLoop=1;jettySize=auto;html=1;exitX=0.5;exitY=0;exitDx=0;exitDy=0;entryX=0.5;entryY=1;entryDx=0;entryDy=0;" edge="1" parent="WIyWlLk6GJQsqaUBKTNV-1" source="r5a2P7JqoO0qEq4FDR-g-56" target="r5a2P7JqoO0qEq4FDR-g-45">
          <mxGeometry relative="1" as="geometry">
            <mxPoint x="830" y="570" as="sourcePoint" />
          </mxGeometry>
        </mxCell>
        <mxCell id="r5a2P7JqoO0qEq4FDR-g-59" value="NO" style="edgeLabel;html=1;align=center;verticalAlign=middle;resizable=0;points=[];" vertex="1" connectable="0" parent="r5a2P7JqoO0qEq4FDR-g-49">
          <mxGeometry x="-0.1705" y="-2" relative="1" as="geometry">
            <mxPoint as="offset" />
          </mxGeometry>
        </mxCell>
        <mxCell id="r5a2P7JqoO0qEq4FDR-g-54" style="edgeStyle=orthogonalEdgeStyle;rounded=0;orthogonalLoop=1;jettySize=auto;html=1;exitX=0.75;exitY=0;exitDx=0;exitDy=0;" edge="1" parent="WIyWlLk6GJQsqaUBKTNV-1" source="r5a2P7JqoO0qEq4FDR-g-53">
          <mxGeometry relative="1" as="geometry">
            <mxPoint x="950" y="460" as="targetPoint" />
          </mxGeometry>
        </mxCell>
        <mxCell id="r5a2P7JqoO0qEq4FDR-g-55" value="YES" style="edgeLabel;html=1;align=center;verticalAlign=middle;resizable=0;points=[];" vertex="1" connectable="0" parent="r5a2P7JqoO0qEq4FDR-g-54">
          <mxGeometry x="0.0688" y="5" relative="1" as="geometry">
            <mxPoint x="1" as="offset" />
          </mxGeometry>
        </mxCell>
        <mxCell id="r5a2P7JqoO0qEq4FDR-g-53" value="Is a Leap Year" style="rounded=1;whiteSpace=wrap;html=1;fontSize=12;glass=0;strokeWidth=1;shadow=0;fillColor=#003300;" vertex="1" parent="WIyWlLk6GJQsqaUBKTNV-1">
          <mxGeometry x="1050" y="565" width="120" height="40" as="geometry" />
        </mxCell>
        <mxCell id="r5a2P7JqoO0qEq4FDR-g-56" value="Not a Leap Year" style="rounded=1;whiteSpace=wrap;html=1;fontSize=12;glass=0;strokeWidth=1;shadow=0;strokeColor=#CC0000;" vertex="1" parent="WIyWlLk6GJQsqaUBKTNV-1">
          <mxGeometry x="610" y="565" width="120" height="40" as="geometry" />
        </mxCell>
      </root>
    </mxGraphModel>
  </diagram>
</mxfile>
